<?xml version="1.0" encoding="utf-8"?>
<svg width="24px" height="24px" viewBox="0 0 24 24" version="1.1" xmlns:xlink="http://www.w3.org/1999/xlink" xmlns="http://www.w3.org/2000/svg">
  <defs>
    <linearGradient gradientUnits="objectBoundingBox" x1="0.5" y1="0" x2="0.5" y2="1" id="gradient_1">
      <stop offset="23.595507%" stop-color="#2B2970" />
      <stop offset="100%" stop-color="#CE812D" />
    </linearGradient>
  </defs>
  <path d="M9.34935 0C8.25487 0 7.35277 0.650625 7.35277 1.44L7.35277 2.4L2.15336 2.4C2.07017 2.38875 1.98698 2.38875 1.90379 2.4L0.697528 2.4C0.67673 2.4 0.655932 2.4 0.635135 2.4C0.268577 2.41313 -0.0173912 2.63813 0.000806808 2.9025C0.0190053 3.16687 0.33097 3.37313 0.697528 3.36L1.42545 3.36L3.81717 22.8C3.90036 23.4713 4.69327 24 5.62657 24L18.3963 24C19.3296 24 20.1225 23.4713 20.2057 22.8L22.5974 3.36L23.3254 3.36C23.5645 3.36187 23.7881 3.27187 23.9103 3.12187C24.0299 2.97187 24.0299 2.78813 23.9103 2.63813C23.7881 2.48813 23.5645 2.39813 23.3254 2.4L16.6701 2.4L16.6701 1.44C16.6701 0.650625 15.768 0 14.6735 0L9.34935 0ZM9.34935 0.96L14.6735 0.96C15.0479 0.96 15.3391 1.17 15.3391 1.44L15.3391 2.4L8.68382 2.4L8.68382 1.44C8.68382 1.17 8.97499 0.96 9.34935 0.96L9.34935 0.96ZM2.75649 3.36L21.2664 3.36L18.8747 22.725C18.8539 22.8919 18.6069 23.04 18.3963 23.04L5.62657 23.04C5.41599 23.04 5.16902 22.8919 5.14822 22.725L2.75649 3.36ZM7.9559 4.785C7.92731 4.78875 7.89871 4.79437 7.87271 4.8C7.56335 4.85063 7.34497 5.05125 7.35277 5.28L7.35277 21.12C7.35017 21.2925 7.47496 21.4537 7.68294 21.5419C7.89091 21.6281 8.14568 21.6281 8.35366 21.5419C8.56164 21.4537 8.68642 21.2925 8.68382 21.12L8.68382 5.28C8.69162 5.14125 8.61363 5.00813 8.47585 4.91438C8.33546 4.81875 8.14568 4.77187 7.9559 4.785L7.9559 4.785ZM11.9491 4.785C11.9205 4.78875 11.8919 4.79437 11.8659 4.8C11.5565 4.85063 11.3381 5.05125 11.3459 5.28L11.3459 21.12C11.3433 21.2925 11.4681 21.4537 11.6761 21.5419C11.8841 21.6281 12.1388 21.6281 12.3468 21.5419C12.5548 21.4537 12.6796 21.2925 12.677 21.12L12.677 5.28C12.6848 5.14125 12.6068 5.00813 12.469 4.91438C12.3286 4.81875 12.1388 4.77187 11.9491 4.785L11.9491 4.785ZM15.9422 4.785C15.9136 4.78875 15.885 4.79437 15.859 4.8C15.5496 4.85063 15.3313 5.05125 15.3391 5.28L15.3391 21.12C15.3365 21.2925 15.4613 21.4537 15.6692 21.5419C15.8772 21.6281 16.132 21.6281 16.34 21.5419C16.5479 21.4537 16.6727 21.2925 16.6701 21.12L16.6701 5.28C16.6779 5.14125 16.5999 5.00813 16.4621 4.91438C16.3218 4.81875 16.132 4.77187 15.9422 4.785L15.9422 4.785Z" id="Shape" fill="url(#gradient_1)" fill-rule="evenodd" stroke="none" />
</svg>