<?xml version="1.0" encoding="utf-8"?>
<svg width="24px" height="24px" viewBox="0 0 24 24" version="1.1" xmlns:xlink="http://www.w3.org/1999/xlink" xmlns="http://www.w3.org/2000/svg">
  <defs>
    <linearGradient gradientUnits="objectBoundingBox" x1="0.5" y1="0" x2="0.5" y2="1" id="gradient_1">
      <stop offset="23.595507%" stop-color="#2B2970" />
      <stop offset="100%" stop-color="#CE812D" />
    </linearGradient>
  </defs>
  <path d="M23.2559 0.743886C22.7607 0.248641 22.1106 0 21.4604 0C20.8103 0 20.1602 0.248641 19.6649 0.743886C19.6649 0.743886 19.6282 0.778533 19.5814 0.827446C19.5773 0.831522 19.5712 0.83356 19.5671 0.837636L1.20036 19.2024C1.13719 19.2677 1.09031 19.3471 1.06586 19.4368L0.0183072 23.3438C-0.0306056 23.5231 0.0203457 23.7147 0.152817 23.8471C0.252681 23.947 0.385153 24 0.521701 24C0.566538 24 0.611374 23.9939 0.656211 23.9817L4.56311 22.9341C4.65279 22.9096 4.73227 22.8628 4.79749 22.7976L23.1622 4.43478C23.1683 4.42867 23.1703 4.42052 23.1744 4.4144C23.2213 4.36753 23.2539 4.33492 23.2539 4.33492C24.2484 3.34239 24.2484 1.73438 23.2559 0.743886L23.2559 0.743886ZM22.5182 1.48166C23.101 2.06454 23.101 3.01427 22.5182 3.59715C22.3449 3.76834 22.1982 3.91712 22.0718 4.04348L19.9564 1.92799C20.1968 1.6875 20.4027 1.48166 20.4027 1.48166C20.6839 1.19837 21.061 1.04348 21.4604 1.04348C21.8599 1.04348 22.2349 1.20041 22.5182 1.48166L22.5182 1.48166ZM1.88107 20.4273L3.57263 22.1189L1.25947 22.7405L1.88107 20.4273Z" id="Shape" fill="url(#gradient_1)" fill-rule="evenodd" stroke="none" />
</svg>