<?xml version="1.0" encoding="utf-8"?>
<svg width="24.000122px" height="24px" viewBox="0 0 24.000122 24" version="1.1" xmlns:xlink="http://www.w3.org/1999/xlink" xmlns="http://www.w3.org/2000/svg">
  <defs>
    <linearGradient gradientUnits="objectBoundingBox" x1="0.5" y1="0" x2="0.5" y2="1" id="gradient_1">
      <stop offset="23.595507%" stop-color="#2B2970" />
      <stop offset="100%" stop-color="#CE812D" />
    </linearGradient>
  </defs>
  <path d="M22.6799 0.00152779C22.2623 0.0177259 21.8791 0.260699 21.658 0.649457L9.82689 20.5409L2.16223 13.2625C1.83304 12.8872 1.33926 12.7468 0.884786 12.9034C0.432767 13.0573 0.0962105 13.4785 0.0175986 13.9914C-0.0610132 14.5071 0.128146 15.0254 0.511379 15.3359L9.2766 23.6726C9.55174 23.929 9.91533 24.0424 10.2715 23.9857C10.6302 23.9263 10.9471 23.7023 11.1436 23.3702L23.7805 2.16129C24.0507 1.72664 24.0728 1.1651 23.8395 0.706151C23.6061 0.249901 23.1565 -0.0227699 22.6799 0.00152779L22.6799 0.00152779Z" id="Shape" fill="url(#gradient_1)" stroke="none" />
</svg>